<?xml version="1.0" standalone="no"?><!DOCTYPE svg PUBLIC "-//W3C//DTD SVG 1.1//EN" "http://www.w3.org/Graphics/SVG/1.1/DTD/svg11.dtd"><svg t="1703840014488" class="icon" viewBox="0 0 1024 1024" version="1.1" xmlns="http://www.w3.org/2000/svg" p-id="4225" xmlns:xlink="http://www.w3.org/1999/xlink" width="200" height="200"><path d="M703.74312 37.376593A506.303367 506.303367 0 0 0 511.99936 0.00064C229.631713 0.00064 0 229.632353 0 512c0 218.623727 137.599828 405.631493 330.879586 478.847401l0.384 0.256c1.535998 0.639999 3.199996 1.151999 4.863994 1.791998l1.151998 0.383999c55.99993 20.351975 115.135856 30.719962 174.719782 30.719962a508.415364 508.415364 0 0 0 197.887753-39.80795C894.206882 906.751507 1023.99872 724.223735 1023.99872 512A512.447359 512.447359 0 0 0 703.74312 37.376593zM329.599588 907.007506A435.519456 435.519456 0 0 1 76.799904 512c0-229.887713 179.071776-418.559477 404.991494-434.175457L260.735674 480.768039A38.399952 38.399952 0 0 0 294.399632 537.599968h215.551731L329.599588 907.007506z m325.759593 15.87198a436.671454 436.671454 0 0 1-253.055684 10.367987l203.647746-417.151478a38.591952 38.591952 0 0 0-34.559957-55.295931H359.295551l208.767739-380.415524c21.759973 2.815996 43.007946 7.167991 63.61592 13.183983L524.031345 302.464262a38.079952 38.079952 0 0 0 1.407998 37.503953c6.911991 11.519986 19.327976 18.431977 32.767959 18.431977h130.687837l-33.535958 564.479294z m79.231901-36.991953L767.99904 322.304237a38.783952 38.783952 0 0 0-10.495987-28.671964 38.143952 38.143952 0 0 0-27.903965-12.031985H621.183224l82.559896-160.2558A435.647455 435.647455 0 0 1 947.198816 512a435.391456 435.391456 0 0 1-212.607734 373.887533z" fill="#35FFFE" p-id="4226"></path></svg>